<?xml version="1.0" encoding="iso-8859-1"?>
<!-- Generator: Adobe Illustrator 19.0.0, SVG Export Plug-In . SVG Version: 6.00 Build 0)  -->
<svg version="1.1" id="Layer_1" xmlns="http://www.w3.org/2000/svg" xmlns:xlink="http://www.w3.org/1999/xlink" x="0px" y="0px"
	 viewBox="0 0 512 512" style="enable-background:new 0 0 512 512;" xml:space="preserve">
<g>
	<g>
		<path d="M495.66,144.805h-50.876v84.137C481.9,228.62,512,198.337,512,161.145C512,152.121,504.684,144.805,495.66,144.805z"/>
	</g>
</g>
<g>
	<g>
		<path d="M329.897,57.549c-45.327,0-82.204,36.877-82.204,82.204v92.306H16.34C7.316,232.059,0,239.375,0,248.4
			c0,113.617,92.435,206.052,206.051,206.052s206.051-92.435,206.051-206.051V139.754C412.102,94.426,375.225,57.549,329.897,57.549
			z M320.732,325.405c-25.793,38.302-68.665,61.169-114.68,61.169c-46.016,0-88.888-22.867-114.682-61.169
			c-7.297-10.831,0.483-25.468,13.553-25.468h202.255C320.235,299.937,328.036,314.56,320.732,325.405z M345.156,156.441
			c-11.938,0-21.616-9.678-21.616-21.616c0-11.938,9.678-21.616,21.616-21.616s21.616,9.678,21.616,21.616
			C366.772,146.763,357.094,156.441,345.156,156.441z"/>
	</g>
</g>
<g>
</g>
<g>
</g>
<g>
</g>
<g>
</g>
<g>
</g>
<g>
</g>
<g>
</g>
<g>
</g>
<g>
</g>
<g>
</g>
<g>
</g>
<g>
</g>
<g>
</g>
<g>
</g>
<g>
</g>
</svg>
